<?xml version="1.0" standalone="no"?>
<!DOCTYPE svg PUBLIC "-//W3C//DTD SVG 20010904//EN"
 "http://www.w3.org/TR/2001/REC-SVG-20010904/DTD/svg10.dtd">
<svg version="1.0" xmlns="http://www.w3.org/2000/svg"
 width="873.000000pt" height="1280.000000pt" viewBox="0 0 873.000000 1280.000000"
 preserveAspectRatio="xMidYMid meet">
<metadata>
Created by potrace 1.15, written by Peter Selinger 2001-2017
</metadata>
<g transform="translate(0.000000,1280.000000) scale(0.100000,-0.100000)"
fill="#000000" stroke="none">
<path d="M2040 12793 c-509 -54 -948 -415 -1256 -1033 -215 -432 -348 -986
-378 -1580 -4 -63 -9 -150 -12 -192 l-5 -78 164 0 164 0 7 93 c21 284 100 595
201 798 115 229 316 435 545 557 190 103 421 149 647 131 331 -27 620 -224
868 -594 308 -459 587 -1282 805 -2377 l31 -156 -1157 -2494 c-636 -1371
-1258 -2711 -1381 -2978 -124 -267 -356 -766 -515 -1110 -160 -344 -376 -809
-480 -1035 -105 -225 -212 -456 -238 -513 l-49 -102 845 2 846 3 312 710 c172
391 753 1709 1291 2930 538 1221 994 2257 1014 2302 19 45 36 81 38 80 1 -2
183 -817 403 -1812 494 -2232 510 -2298 674 -2790 202 -603 402 -963 640
-1150 176 -138 414 -272 578 -325 533 -172 1041 -61 1417 310 411 405 609 980
661 1916 5 99 10 227 10 287 l0 107 -160 0 -159 0 -5 -32 c-3 -18 -14 -98 -26
-178 -93 -627 -343 -1010 -748 -1149 -175 -60 -436 -67 -625 -18 -250 66 -477
222 -671 461 -322 397 -574 1094 -875 2421 -39 171 -239 1064 -445 1985 -489
2182 -605 2686 -806 3490 -345 1380 -560 1971 -889 2445 -90 130 -286 331
-408 418 -271 193 -580 281 -873 250z"/>
</g>
</svg>
