<svg width="500" height="92" viewBox="0 0 500 92" fill="none" xmlns="http://www.w3.org/2000/svg">
<path fill-rule="evenodd" clip-rule="evenodd" d="M76.0197 10.6427L87.3326 10.6427L52.8759 70.417L18.4192 10.6427L29.7318 10.6427V6.43774e-06L0 8.95557e-06L52.8759 91.7274L105.752 0L76.0197 2.51786e-06V10.6427ZM65.3379 10.6427L65.3379 3.42245e-06L40.4136 5.53315e-06V10.6427L65.3379 10.6427Z" fill="white"/>
<path d="M136.864 22.88H156.576C161.397 22.88 165.152 24.096 167.84 26.528C170.528 28.9173 171.872 32.288 171.872 36.64C171.872 40.992 170.528 44.384 167.84 46.816C165.152 49.248 161.397 50.464 156.576 50.464H145.12V68H136.864V22.88ZM155.552 44.128C161.227 44.128 164.064 41.6533 164.064 36.704C164.064 34.1867 163.36 32.3307 161.952 31.136C160.544 29.8987 158.411 29.28 155.552 29.28H145.12V44.128H155.552Z" fill="white"/>
<path d="M223.338 68H214.378L206.634 53.6C205.909 52.2347 205.013 51.2747 203.946 50.72C202.879 50.1653 201.535 49.888 199.914 49.888H193.642V68H185.514V22.88H205.482C210.602 22.88 214.485 24.032 217.13 26.336C219.818 28.5973 221.162 31.8827 221.162 36.192C221.162 39.648 220.181 42.5067 218.218 44.768C216.298 46.9867 213.567 48.4373 210.026 49.12C212.415 49.76 214.335 51.4453 215.786 54.176L223.338 68ZM204.33 43.552C207.445 43.552 209.727 42.976 211.178 41.824C212.629 40.6293 213.354 38.816 213.354 36.384C213.354 33.9093 212.629 32.1173 211.178 31.008C209.727 29.856 207.445 29.28 204.33 29.28H193.578V43.552H204.33Z" fill="white"/>
<path d="M236.414 22.88H244.67V68H236.414V22.88Z" fill="white"/>
<path d="M304.846 22.88V68H297.55V38.176L285.646 60.704H280.142L268.174 38.496L268.238 68H260.942V22.88H267.47L282.958 52.384L298.382 22.88H304.846Z" fill="white"/>
<path d="M321.027 22.88H329.283V68H321.027V22.88Z" fill="white"/>
<path d="M356.051 29.664H341.331V22.88H379.027V29.664H364.307V68H356.051V29.664Z" fill="white"/>
<path d="M391.077 22.88H399.333V68H391.077V22.88Z" fill="white"/>
<path d="M456.949 22.88L436.853 68H430.133L410.036 22.88H418.548L433.525 57.76L448.565 22.88H456.949Z" fill="white"/>
<path d="M467.564 22.88H497.772V29.408H475.628V41.824H496.492V48.288H475.628V61.472H497.772V68H467.564V22.88Z" fill="white"/>
</svg>
